<svg xmlns="http://www.w3.org/2000/svg" width="121.454" height="12.502" viewBox="0 0 121.454 12.502">
  <g id="Group_1381" data-name="Group 1381" transform="translate(-4561 -2525)">
    <g id="heart_2_" data-name="heart (2)" transform="translate(4669 2508.104)">
      <g id="Group_1380" data-name="Group 1380" transform="translate(0 16.896)">
        <path id="Path_892" data-name="Path 892" d="M12.354,18.071a3.676,3.676,0,0,0-5.388,0l-.238.251-.238-.251a3.679,3.679,0,0,0-5.2-.191q-.1.092-.191.191a4.126,4.126,0,0,0,0,5.611l5.279,5.567a.481.481,0,0,0,.68.018l.018-.018,5.277-5.567A4.126,4.126,0,0,0,12.354,18.071Z" transform="translate(0 -16.896)" fill="#ce1d1d"/>
      </g>
    </g>
    <text id="FAVOURITE_THIS_RECIPE" data-name="FAVOURITE THIS RECIPE" transform="translate(4561 2535)" font-size="9" font-family="SegoeUI-Semibold, Segoe UI" font-weight="600"><tspan x="0" y="0">FAVOURITE THIS RECIPE</tspan></text>
  </g>
</svg>
